# xmcd
#
# Track frame offsets:
#	150
#	15215
#	27792
#	41511
#	52822
#	66595
#	80566
#	97493
#	115281
#	130772
#	142912
#	153394
#	163695
#	175928
#	190598
#	206586
#
# Disc length: 2912 seconds
#
# Revision: 1
# Processed by: cddbd v1.5.1PL0 Copyright (c) Steve Scherf et al.
# Submitted via: audiograbber 1.83.01
#
DISCID=d20b5e10
DTITLE=Unlimited Sound Orchestra - Sinatra Instrumental
DYEAR=2003
DGENRE=Instrumental
TTITLE0=New York New York
TTITLE1=I Left My Heart In San Francisco
TTITLE2=Night And Day
TTITLE3=Chicago
TTITLE4=The Days Of Wine And Roses
TTITLE5=Autumn Leaves
TTITLE6=The Lady Is A Tramp
TTITLE7=My May
TTITLE8=Mistry
TTITLE9=The Wolrd We Knew
TTITLE10=All the Things You Are
TTITLE11=I've Got You Under My Skin
TTITLE12=Something Stupid
TTITLE13=Let Me Try Again
TTITLE14=April In Paris
TTITLE15=Strangers In The Night
EXTD=
EXTT0=
EXTT1=
EXTT2=
EXTT3=
EXTT4=
EXTT5=
EXTT6=
EXTT7=
EXTT8=
EXTT9=
EXTT10=
EXTT11=
EXTT12=
EXTT13=
EXTT14=
EXTT15=
PLAYORDER=
